<svg id="Capa_1" enable-background="new 0 0 511.319 511.319" height="512" viewBox="0 0 511.319 511.319" width="512" xmlns="http://www.w3.org/2000/svg"><path d="m319.501 110.324h-127.683v-13.838c0-9.539 7.733-17.271 17.271-17.271h93.14c9.539 0 17.271 7.733 17.271 17.271v13.838z" fill="#0681af"/><path d="m347.604 106.324h-183.889c-18.879 0-34.183 15.304-34.183 34.183v103.375c0 18.879 15.304 34.183 34.183 34.183h56.2c4.194 0 7.872-2.803 8.983-6.848l.537-1.955c3.099-11.28 12.781-19.752 24.441-20.705 13.339-1.09 25.371 7.471 28.859 20.165l.686 2.495c1.111 4.044 4.788 6.848 8.983 6.848h55.2c18.879 0 34.183-15.304 34.183-34.183v-103.375c0-18.879-15.304-34.183-34.183-34.183z" fill="#8abbd5"/><path d="m316.452 132.324h31.152c4.512 0 8.183 3.671 8.183 8.183v103.375c0 4.512-3.671 8.183-8.183 8.183h-43.546c-8.945-17.835-27.403-29.601-47.898-29.601-1.461 0-2.942.061-4.402.18-18.646 1.523-35.008 12.919-43.403 29.421h-44.639c-4.512 0-8.183-3.671-8.183-8.183v-103.375c0-4.512 3.671-8.183 8.183-8.183h122.304z" fill="#6cf5c2"/><path d="m80.51 153.771v5.53h-25.27c-13.18 0-25.12-5.34-33.76-13.98-8.555-8.555-13.875-20.336-13.978-33.371-.211-26.466 22.102-48.119 48.568-48.119h20.245c2.316 0 4.194 1.878 4.194 4.194v85.746z" fill="#01d0fb"/><path d="m503.818 111.95c-.104 13.036-5.423 24.816-13.978 33.371-8.64 8.64-20.58 13.98-33.76 13.98h-25.27v-5.53-85.746c0-2.316 1.878-4.194 4.194-4.194h20.245c26.466 0 48.78 21.653 48.569 48.119z" fill="#62dbfb"/><path d="m322.134 159.302h-132.949c-.573 0-1.037.464-1.037 1.037v15.117c0 7.91 6.413 14.323 14.323 14.323h106.377c7.91 0 14.323-6.413 14.323-14.323v-15.117c0-.573-.464-1.037-1.037-1.037z" fill="#fee45a"/><path d="m503.82 111.561v288.19c0 26.37-21.37 47.74-47.74 47.74h-25.27-350.3-25.27c-26.37 0-47.74-21.37-47.74-47.74v-288.19c0 13.19 5.34 25.12 13.98 33.76s20.58 13.98 33.76 13.98h25.27 350.3 25.27c13.18 0 25.12-5.34 33.76-13.98s13.98-20.57 13.98-33.76z" fill="#99e6fc"/><g fill="#62dbfb"><path d="m498.321 403.288h-230.824c-106.307 0-192.486-86.179-192.486-192.486v-51.501h-19.771c-13.18 0-25.12-5.34-33.76-13.98s-13.98-20.57-13.98-33.76v288.19c0 26.366 21.374 47.74 47.74 47.74h25.27 350.3 25.27c25.179 0 45.784-19.487 47.596-44.203z"/><path d="m503.82 115.098v-3.537c0 1.191-.058 2.368-.144 3.537z"/><path d="m186.894 211.948h-127.353c-5.129 0-9.286 4.158-9.286 9.286v86.393c0 5.129 4.158 9.286 9.286 9.286h127.353c5.129 0 9.286-4.158 9.286-9.286v-86.393c0-5.129-4.157-9.286-9.286-9.286z"/></g><path d="m106.891 316.913c-19.944-30.126-31.639-66.184-31.865-104.966h-15.485c-5.129 0-9.286 4.158-9.286 9.286v86.393c0 5.129 4.158 9.286 9.286 9.286h47.35z" fill="#01d0fb"/><path d="m450.895 207.081h-112.13c-5.129 0-9.286 4.158-9.286 9.286v74.976c0 5.129 4.158 9.286 9.286 9.286h112.131c5.129 0 9.286-4.158 9.286-9.286v-74.976c0-5.129-4.158-9.286-9.287-9.286z" fill="#62dbfb"/><path d="m354.321 159.302v25.698h-197.35v-25.698h-27.439v84.58c0 18.879 15.304 34.183 34.183 34.183h56.2c4.194 0 7.872-2.803 8.983-6.848l.537-1.955c3.099-11.28 12.781-19.752 24.441-20.705 13.339-1.09 25.371 7.471 28.859 20.165l.686 2.495c1.111 4.045 4.788 6.848 8.983 6.848h55.2c18.879 0 34.183-15.304 34.183-34.183v-84.58z" fill="#6cabca"/><path d="m186.894 211.948h-57.362v31.934c0 18.879 15.304 34.183 34.183 34.183h32.465v-56.831c0-5.129-4.157-9.286-9.286-9.286z" fill="#3692bc"/><path d="m338.765 207.081c-5.129 0-9.286 4.158-9.286 9.286v61.698h18.126c18.879 0 34.183-15.304 34.183-34.183v-36.801z" fill="#3692bc"/><path d="m155.532 159.302v84.58c0 4.519 3.664 8.183 8.183 8.183h41.449c1.923 0 3.691-1.032 4.658-2.694 8.748-15.04 24.323-25.288 41.936-26.727 1.46-.119 2.941-.18 4.402-.18 19.431 0 37.031 10.576 46.429 26.873.968 1.679 2.741 2.728 4.679 2.728h40.337c4.519 0 8.183-3.664 8.183-8.183v-84.58z" fill="#05e39c"/><path d="m186.894 211.948h-31.362v31.934c0 4.519 3.664 8.183 8.183 8.183h32.465v-30.831c0-5.129-4.157-9.286-9.286-9.286z" fill="#0ed290"/><path d="m338.765 207.081c-5.129 0-9.286 4.158-9.286 9.286v35.698h18.126c4.519 0 8.183-3.664 8.183-8.183v-36.801z" fill="#0ed290"/><path d="m383.841 416.419h-256.363c-6.172 0-11.175-5.003-11.175-11.175v-44.564c0-6.172 5.003-11.175 11.175-11.175h256.364c6.172 0 11.175 5.003 11.175 11.175v44.563c0 6.172-5.004 11.176-11.176 11.176z" fill="#62dbfb"/><path d="m267.497 403.288c-51.818 0-98.848-20.482-133.452-53.784h-6.568c-6.172 0-11.175 5.003-11.175 11.175v44.563c0 6.172 5.003 11.175 11.175 11.175h256.364c6.172 0 11.175-5.003 11.175-11.175v-1.955h-127.519z" fill="#01d0fb"/><path d="m456.083 56.329h-20.425c-6.809 0-12.348 5.539-12.348 12.347v83.126h-34.023v-11.294c0-22.984-18.699-41.684-41.683-41.684h-20.603v-2.338c0-13.659-11.112-24.771-24.771-24.771h-93.14c-13.659 0-24.771 11.112-24.771 24.771v2.338h-20.603c-22.984 0-41.683 18.699-41.683 41.684v11.294h-34.024v-83.126c0-6.808-5.539-12.347-12.348-12.347h-20.425c-30.457 0-55.236 24.779-55.236 55.236v288.188c0 30.458 24.779 55.237 55.236 55.237h400.847c30.458 0 55.236-24.779 55.236-55.237v-288.188c0-30.457-24.778-55.236-55.236-55.236zm-17.772 15h17.772c22.187 0 40.236 18.05 40.236 40.236s-18.05 40.237-40.236 40.237h-17.772zm-238.993 25.157c0-5.388 4.383-9.771 9.771-9.771h93.14c5.388 0 9.771 4.383 9.771 9.771v2.338h-112.682zm-62.286 44.022c0-14.713 11.97-26.684 26.683-26.684h28.103 127.683 28.103c14.713 0 26.683 11.97 26.683 26.684v11.294h-11v-11.295c0-8.647-7.035-15.683-15.683-15.683h-31.152c-4.142 0-7.5 3.358-7.5 7.5s3.358 7.5 7.5 7.5h31.152c.37 0 .683.313.683.683v11.295h-25.116-135.023-25.116v-11.295c0-.37.313-.683.683-.683h122.305c4.142 0 7.5-3.358 7.5-7.5s-3.358-7.5-7.5-7.5h-122.305c-8.648 0-15.683 7.036-15.683 15.683v11.295h-11zm199.947 145.057h10.625c22.984 0 41.683-18.699 41.683-41.684v-29.301h61.608c.985 0 1.786.801 1.786 1.786v74.977c0 .985-.801 1.786-1.786 1.786h-112.13c-.985 0-1.786-.801-1.786-1.786zm37.308-41.683c0 14.713-11.97 26.684-26.683 26.684h-10.625v-11h10.625c8.648 0 15.683-7.035 15.683-15.683v-29.301h11zm-210.572 41.683h24.965v22.062c0 .985-.801 1.787-1.786 1.787h-127.353c-.985 0-1.786-.801-1.786-1.787v-86.393c0-.985.801-1.787 1.786-1.787h62.491v24.435c0 22.984 18.699 41.683 41.683 41.683zm0-15c-14.713 0-26.683-11.97-26.683-26.683v-24.435h11v24.435c0 8.647 7.035 15.683 15.683 15.683h24.965v11zm31.933-103.763h120.022v8.654c0 3.762-3.061 6.823-6.823 6.823h-106.376c-3.762 0-6.823-3.061-6.823-6.823zm6.823 30.477h106.377c12.033 0 21.823-9.79 21.823-21.823v-8.654h17.616v32.779h-9.522c-9.256 0-16.786 7.53-16.786 16.786v28.198h-13.501c-10.96-18.122-31.008-29.601-52.318-29.601-1.663 0-3.349.069-5.013.205-19.332 1.58-37.021 12.706-47.19 29.396h-.277v-23.331c0-9.256-7.53-16.787-16.786-16.787h-23.862v-37.646h17.616v8.654c0 12.035 9.79 21.824 21.823 21.824zm145.816 17.302v29.301c0 .37-.313.683-.683.683h-10.625v-28.198c0-.985.801-1.786 1.786-1.786zm-185.255 4.867h23.862c.985 0 1.786.801 1.786 1.787v23.331h-24.965c-.37 0-.683-.313-.683-.683zm-15-15h-11v-37.646h11zm55.648 55.117h4.674c2.822 0 5.405-1.584 6.685-4.099 7.3-14.35 21.604-24.063 37.329-25.347 1.259-.103 2.535-.155 3.792-.155 17.267 0 33.436 9.995 41.194 25.463 1.272 2.537 3.867 4.138 6.704 4.138h17.921v11h-29.575c-.815 0-1.535-.549-1.751-1.334l-.686-2.495c-4.205-15.307-18.162-25.771-33.825-25.771-.953 0-1.913.039-2.877.118-14.602 1.193-27.084 11.719-31.062 26.194l-.537 1.955c-.216.786-.936 1.335-1.751 1.335h-16.235zm159.607-59.984v-32.779h11v32.779zm-308.051-128.252h17.772v80.473h-17.772c-22.186 0-40.236-18.05-40.236-40.237s18.05-40.236 40.236-40.236zm441.083 328.425c0 22.187-18.05 40.237-40.236 40.237h-400.847c-22.186-.001-40.236-18.051-40.236-40.237v-250.404c10.083 10.73 24.385 17.452 40.236 17.452h25.272 41.523v37.646h-62.49c-9.256 0-16.786 7.53-16.786 16.787v86.393c0 9.256 7.53 16.787 16.786 16.787h127.353c9.256 0 16.786-7.53 16.786-16.787v-22.062h16.235c7.547 0 14.215-5.083 16.215-12.361l.537-1.955c2.313-8.42 9.475-14.536 17.819-15.217 9.622-.792 18.464 5.385 21.017 14.677l.686 2.496c2 7.277 8.667 12.36 16.215 12.36h29.575v5.778c0 9.256 7.53 16.786 16.786 16.786h112.131c9.256 0 16.786-7.53 16.786-16.786v-74.977c0-9.256-7.53-16.786-16.786-16.786h-61.608v-32.779h41.523 25.272c15.851 0 30.154-6.721 40.236-17.452z"/><path d="m383.841 342.005h-256.363c-10.297 0-18.675 8.378-18.675 18.675v44.563c0 10.297 8.378 18.675 18.675 18.675h256.363c10.297 0 18.675-8.378 18.675-18.675v-44.563c.001-10.297-8.377-18.675-18.675-18.675zm3.676 63.238c0 2.026-1.649 3.675-3.675 3.675h-256.364c-2.026 0-3.675-1.649-3.675-3.675v-44.563c0-2.026 1.649-3.675 3.675-3.675h256.363c2.026 0 3.675 1.649 3.675 3.675v44.563z"/><path d="m160.598 375.462h-16.908c-4.142 0-7.5 3.358-7.5 7.5s3.358 7.5 7.5 7.5h16.907c4.142 0 7.5-3.358 7.5-7.5s-3.357-7.5-7.499-7.5z"/><path d="m364.857 375.462h-176.709c-4.142 0-7.5 3.358-7.5 7.5s3.358 7.5 7.5 7.5h176.709c4.142 0 7.5-3.358 7.5-7.5s-3.357-7.5-7.5-7.5z"/></svg>