<svg height="512pt" viewBox="-23 0 512 512" width="512pt" xmlns="http://www.w3.org/2000/svg"><path d="m42 15h216c14.851562 0 27 12.148438 27 27v428c0 14.851562-12.148438 27-27 27h-216c-14.851562 0-27-12.148438-27-27v-428c0-14.851562 12.148438-27 27-27zm0 0" fill="#f3eee9" fill-rule="evenodd"/><path d="m258 15h-108v482h108c14.851562 0 27-12.148438 27-27v-428c0-14.851562-12.148438-27-27-27zm0 0" fill="#e9dfda" fill-rule="evenodd"/><path d="m258 0h-216c-23.195312 0-42 18.804688-42 42v428c0 23.195312 18.804688 42 42 42h216c23.195312 0 42-18.804688 42-42v-428c0-23.195312-18.804688-42-42-42zm-216 30h26.65625c5.304688 0 10.148438 2.839844 12.910156 7.367188 7.90625 12.960937 22.171875 21.632812 38.433594 21.632812h60c16.261719 0 30.527344-8.671875 38.433594-21.632812 2.761718-4.527344 7.605468-7.367188 12.910156-7.367188h26.65625c6.628906 0 12 5.371094 12 12v365c0 8.28125-6.714844 15-15 15h-210c-8.285156 0-15-6.71875-15-15v-365c0-6.628906 5.371094-12 12-12zm0 0" fill="#00347b"/><path d="m258 0h-108v59h30c16.261719 0 30.527344-8.671875 38.433594-21.632812 2.761718-4.527344 7.605468-7.367188 12.910156-7.367188h26.65625c6.628906 0 12 5.371094 12 12v365c0 8.28125-6.714844 15-15 15h-105v90h108c23.195312 0 42-18.804688 42-42v-428c0-23.195312-18.804688-42-42-42zm0 0" fill="#001737"/><path d="m390.042969 340.332031h-51.15625c-18.171875 0-33.976563-10.347656-41.246094-27-4.800781-11.003906-15.632813-18.113281-27.597656-18.113281-11.964844 0-22.800781 7.109375-27.601563 18.113281-7.269531 16.65625-23.070312 27-41.242187 27h-51.15625c-41.355469 0-75-33.644531-75-75v-50c0-41.355469 33.644531-75 75-75h240c41.355469 0 75 33.644531 75 75v50c0 41.355469-33.644531 75-75 75zm0 0" fill="#2680ff"/><path d="m390.042969 140.332031h-120v154.886719c11.964843 0 22.796875 7.109375 27.597656 18.113281 7.269531 16.652344 23.074219 27 41.246094 27h51.15625c41.355469 0 75-33.644531 75-75v-50c0-41.355469-33.644531-75-75-75zm0 0" fill="#0051bd"/><g fill-rule="evenodd"><path d="m210.042969 199.875c8.261719 0 15-6.738281 15-15s-6.738281-15-15-15-15 6.738281-15 15 6.738281 15 15 15zm0 0" fill="#00eed0"/><path d="m270.042969 199.875c8.261719 0 15-6.738281 15-15s-6.738281-15-15-15-15 6.738281-15 15 6.738281 15 15 15zm0 0" fill="#ffda2d"/><path d="m330.042969 199.875c8.261719 0 15-6.738281 15-15s-6.738281-15-15-15-15 6.738281-15 15 6.738281 15 15 15zm0 0" fill="#ad0094"/></g><path d="m165 467.1875c0 8.28125-6.714844 15-15 15s-15-6.71875-15-15c0-8.285156 6.714844-15 15-15s15 6.714844 15 15zm0 0" fill="#f3eee9"/><path d="m150 452.1875v30c8.285156 0 15-6.71875 15-15 0-8.285156-6.714844-15-15-15zm0 0" fill="#e9dfda"/><path d="m270.042969 169.875v30c8.261719 0 15-6.738281 15-15s-6.738281-15-15-15zm0 0" fill="#fdbf00" fill-rule="evenodd"/></svg>