<svg id="Layer_5" enable-background="new 0 0 64 64" height="512" viewBox="0 0 64 64" width="512" xmlns="http://www.w3.org/2000/svg" xmlns:xlink="http://www.w3.org/1999/xlink"><linearGradient id="SVGID_1_" gradientUnits="userSpaceOnUse" x1="32" x2="32" y1="63" y2="1"><stop offset="0" stop-color="#9f2fff"/><stop offset="1" stop-color="#0bb1d3"/></linearGradient><path d="m54.896 33.69c-9.668-1.734-17.8-2.69-22.896-2.69s-13.227.956-22.896 2.69c-2.378.428-4.104 2.496-4.104 4.919v18.08l.409.3c2.258 1.651 5.11 2.334 7.908 1.868l.241-.072c2.009-.888 9.276-3.785 18.442-3.785s16.433 2.897 18.441 3.786l.241.072c.57.094 1.15.142 1.724.142 2.236 0 4.374-.698 6.184-2.019l.41-.299v-18.073c0-2.423-1.727-4.491-4.104-4.919zm-11.896 5.31h14v2h-14zm8.13 17.904c-2.257-.985-9.747-3.904-19.13-3.904s-16.873 2.919-19.13 3.904c-2.068.312-4.155-.141-5.87-1.247v-16.657h2v-2h-1.525c.435-.685 1.137-1.189 1.982-1.341 9.557-1.715 17.563-2.659 22.543-2.659 4.981 0 12.986.944 22.542 2.659.846.152 1.547.656 1.983 1.341h-41.525v2h26v4h16v12.648c-1.729 1.115-3.813 1.565-5.87 1.256zm-40.13-19.904h2v2h-2zm-2 12h2v2h-2zm0-4h2v2h-2zm0 8h2v2h-2zm50.279-21.682-.29-3.484c-1.018-12.214-10.009-22.106-21.973-24.347-.245-1.421-1.461-2.487-2.944-2.487h-4.145c-1.483 0-2.699 1.066-2.944 2.487-11.963 2.241-20.954 12.133-21.972 24.347l-.29 3.484c-2.275 1.647-3.721 4.32-3.721 7.291v19.391l.045.458.293.293c2.739 2.74 6.382 4.249 10.256 4.249 1.001 0 2.007-.104 2.988-.311l.231-.079c.075-.036 7.529-3.61 17.187-3.61 9.633 0 17.112 3.574 17.187 3.61l.231.079c.981.207 1.987.311 2.988.311 3.874 0 7.517-1.509 10.297-4.289l.297-.294v-19.808c0-2.971-1.446-5.644-3.721-7.291zm-2.282-3.318.182 2.188c-.504-.189-1.03-.336-1.577-.434-.802-.144-1.644-.291-2.511-.439l-.082-.982c-.736-8.832-7.158-16.376-15.724-18.632l-.154-4.152c10.837 2.248 18.937 11.304 19.866 22.451zm-30.716-6.596c-.305.035-.595.065-.913.105-2.49.311-4.368 2.444-4.368 4.96v1.347c-2.727.335-5.477.741-8.057 1.161l.04-.478c.65-7.792 6.191-14.484 13.655-16.708zm-3.281 5.065c0-1.51 1.125-2.789 2.616-2.976 2.578-.323 4.785-.493 6.384-.493s3.806.17 6.384.493c1.491.187 2.616 1.466 2.616 2.976v1.114c-3.222-.353-6.336-.583-9-.583s-5.778.23-9 .582zm15.632-4.96c-.318-.04-.608-.07-.913-.105l-.356-9.614c7.464 2.224 13.004 8.916 13.655 16.709l.04.478c-2.581-.42-5.331-.826-8.057-1.161v-1.347c-.001-2.516-1.879-4.649-4.369-4.96zm-8.704-18.509h4.145c.54 0 .979.423 1 .963l.638 17.234c-1.416-.126-2.673-.197-3.711-.197s-2.295.071-3.711.197l.638-17.234c.021-.54.461-.963 1.001-.963zm-22.925 25c.93-11.147 9.029-20.203 19.865-22.452l-.154 4.152c-8.566 2.256-14.988 9.8-15.724 18.631l-.082.983c-.867.148-1.709.295-2.511.439-.546.098-1.073.245-1.577.434zm53.997 29.579c-2.331 2.209-5.369 3.421-8.594 3.421-.824 0-1.652-.083-2.462-.245-1.047-.489-8.384-3.755-17.944-3.755s-16.897 3.266-17.944 3.755c-.81.162-1.638.245-2.462.245-3.205 0-6.226-1.197-8.594-3.423v-18.968c0-3.393 2.419-6.29 5.751-6.887 6.919-1.242 16.569-2.722 23.249-2.722s16.33 1.48 23.249 2.722c3.332.598 5.751 3.494 5.751 6.887zm-28-42.579h-2v-2h2zm0 4h-2v-2h2zm0-8h-2v-2h2z" fill="url(#SVGID_1_)"/></svg>